<?xml version="1.0" encoding="utf-8"?>
<svg id="master-artboard" viewBox="0 0 475.625 107.28450775146484" version="1.1" xmlns="http://www.w3.org/2000/svg" x="0px" y="0px" style="enable-background:new 0 0 1400 980;" width="475.625px" height="107.28450775146484px"><defs><style id="ee-google-fonts">@import url(https://fonts.googleapis.com/css?family=Rubik:300,300italic,400,400italic,500,500italic,700,700italic,900,900italic);</style></defs><rect id="ee-background" x="0" y="0" width="475.625" height="107.28450775146484" style="fill: white; fill-opacity: 0; pointer-events: none;"/>








































<g transform="matrix(0.035075146704912186, 0, 0, 0.035075146704912186, -121.58888244628906, -689.1594848632812)"><metadata id="metadata1222"/><g id="Capa_x0020_1">
  <metadata id="CorelCorpID_0Corel-Layer"/>
  <g id="_2672656817984">
   <path d="M 4493 22202 L 5129 22410 L 5129 20900 L 4493 20666 Z" class="fil0" id="polygon1129" style="fill: rgb(87, 166, 149);"/>
   <path d="M 5892 21972 L 5889 20433 L 5647 20336 L 5647 20342 L 5533 20290 L 4612 19920 L 4234 20150 L 5511 20663 L 5511 20665 L 5511 20668 L 5514 20666 L 5514 21820 Z" class="fil0 str0" id="polygon1131" style="stroke: rgb(55, 52, 53); stroke-width: 14.04; fill: rgb(87, 166, 149);"/>
   <path d="M 5129 20900 L 5511 20665 L 5511 20663 L 4234 20150 L 4234 20535 L 4493 20641 Z" class="fil0 str0" id="polygon1133" style="stroke: rgb(55, 52, 53); stroke-width: 14.04; fill: rgb(87, 166, 149);"/>
   <path d="M 4108 20878 L 4493 20641 L 4234 20535 L 3856 20381 L 3859 21920 L 4108 22020 Z" class="fil0 str0" id="polygon1135" style="stroke: rgb(55, 52, 53); stroke-width: 14.04; fill: rgb(87, 166, 149);"/>
   <path d="M 5514 22202 L 5129 22410 L 5129 20900 L 5514 20666 Z" class="fil1" id="polygon1137" style="fill: rgb(72, 136, 123);"/>
   <path d="M 5647 19930 L 5647 20342 L 5262 20167 Z" class="fil2 str1" id="polygon1139" style="stroke: rgb(83, 116, 115); stroke-width: 198.19; stroke-linecap: round; stroke-linejoin: round; fill: rgb(72, 136, 123);"/>
   <g id="g1143">
    <path class="fil3" d="M5178 22340c50,20 71,78 48,129 -23,51 -82,76 -132,56l84 -185zm-1277 -513l1277 513 -84 185 -1277 -513 -57 -86 141 -99zm-84 185c-49,-20 -71,-78 -48,-128 23,-51 82,-77 132,-57l-84 185zm138 -1637l3 1539 -198 12 -3 -1539 141 -98 57 86zm-198 12c0,-55 44,-102 99,-105 55,-3 99,38 99,93l-198 12zm1330 605l-1273 -519 84 -184 1273 519 -84 184zm84 -184c50,21 71,78 48,129 -23,51 -82,76 -132,55l84 -184z" id="path1141" style="fill: rgb(83, 116, 115); fill-rule: nonzero;"/>
   </g>
   <g id="g1147">
    <path class="fil4" d="M4564 19836c48,-29 108,-15 135,31 26,46 9,108 -39,137l-96 -168zm-378 231l378 -231 96 168 -378 230 -90 9 -6 -176zm96 167c-48,29 -108,16 -135,-31 -26,-46 -9,-107 39,-136l96 167zm1188 522l-1278 -513 84 -185 1277 513 57 86 -140 99zm83 -185c50,20 71,78 48,129 -23,51 -82,76 -131,56l83 -185zm-138 1637l-3 -1539 198 -12 3 1539 -51 90 -147 -78zm198 -12c0,55 -44,102 -99,105 -55,4 -99,-38 -99,-93l198 -12zm-532 160l385 -237 96 167 -384 237 -97 -167zm97 167c-48,29 -109,16 -136,-30 -26,-46 -9,-108 39,-137l97 167z" id="path1145" style="fill: rgb(83, 116, 115); fill-rule: nonzero;"/>
   </g>
   <g id="g1151">
    <path class="fil3" d="M4570 20012c-50,-20 -71,-77 -48,-128 23,-51 82,-76 132,-56l-84 184zm1277 513l-1277 -513 84 -184 1277 513 57 86 -141 98zm84 -184c49,20 71,77 48,128 -23,51 -82,76 -132,56l84 -184zm-139 1637l-2 -1539 198 -12 3 1539 -141 98 -58 -86zm199 -12c0,54 -44,101 -99,105 -55,3 -99,-38 -100,-93l199 -12zm-436 -238l378 152 -83 184 -378 -152 83 -184zm-83 184c-50,-20 -72,-77 -49,-128 23,-51 82,-76 132,-56l-83 184z" id="path1149" style="fill: rgb(83, 116, 115); fill-rule: nonzero;"/>
   </g>
   <g id="g1155">
    <path class="fil3" d="M5466 20580c47,-30 108,-16 135,30 26,46 9,107 -39,137l-96 -167zm-385 237l385 -237 96 167 -384 237 -97 -167zm97 167c-48,29 -109,16 -136,-30 -26,-46 -9,-108 39,-137l97 167z" id="path1153" style="fill: rgb(83, 116, 115); fill-rule: nonzero;"/>
   </g>
   <g id="g1159">
    <path class="fil3" d="M4135 20156c0,-47 44,-88 99,-91 55,-3 99,33 99,80l-198 11zm0 384l0 -384 198 -11 0 385 -198 10zm198 -10c0,47 -44,87 -99,90 -55,3 -99,-33 -99,-80l198 -10z" id="path1157" style="fill: rgb(83, 116, 115); fill-rule: nonzero;"/>
   </g>
   <path d="M 4493 20641 L 4493 22175 L 4108 22412 L 4108 20878 Z" class="fil2 str2" id="polygon1161" style="stroke: rgb(83, 116, 115); stroke-width: 198.19; stroke-linecap: round; stroke-linejoin: round; fill: rgb(72, 136, 123);"/>
   <path class="fil3" d="M7254 21007c-7,-54 -27,-100 -59,-139 -31,-38 -74,-57 -128,-57 -28,0 -54,9 -78,27 -24,18 -36,43 -36,74l0 10c0,23 8,46 26,69 17,23 41,46 71,71 29,25 64,51 103,79 40,27 82,57 127,88 75,54 130,113 166,177 35,64 53,141 53,229 0,61 -12,116 -37,166 -25,49 -58,91 -100,126 -41,35 -89,62 -143,80 -54,19 -110,28 -167,28 -54,0 -107,-9 -158,-28 -52,-18 -98,-44 -139,-78 -42,-34 -76,-74 -102,-119 -27,-46 -43,-95 -48,-149l221 -110c5,32 13,61 25,89 11,29 27,53 45,74 19,21 41,37 67,50 26,13 55,20 89,21 59,0 104,-11 137,-33 15,-11 31,-28 45,-51 15,-23 22,-48 22,-78l0 -11 0 -2c0,-30 -11,-60 -32,-89 -21,-30 -49,-59 -84,-88 -35,-30 -74,-59 -117,-89 -42,-30 -85,-60 -128,-90 -62,-45 -110,-96 -146,-152 -35,-57 -53,-120 -53,-191 0,-54 11,-103 32,-145 20,-43 48,-79 83,-110 35,-30 75,-54 121,-70 45,-16 93,-25 142,-25 52,0 99,9 142,27 44,17 82,41 116,72 34,30 62,66 84,108 23,41 39,85 49,132l-211 107z" id="path1163" style="fill: rgb(83, 116, 115); fill-rule: nonzero;"/>
   <path id="1" class="fil3" d="M7941 21170l6 127 0 362c0,40 11,75 32,103 20,28 51,42 91,42 31,0 55,-8 73,-25 18,-17 34,-40 47,-69l172 158c-27,57 -64,100 -111,127 -47,28 -103,42 -167,42 -126,0 -220,-35 -283,-106 -63,-70 -95,-164 -95,-282l0 -1010 241 0 0 190 -6 108 293 -6 0 246 -293 -7z" style="fill: rgb(83, 116, 115); fill-rule: nonzero;"/>
   <path id="2" class="fil3" d="M8682 21652c0,58 16,100 46,128 30,29 73,43 128,43 44,0 81,-10 112,-30 31,-20 51,-45 58,-77l0 -124c-6,-31 -25,-57 -54,-79 -30,-22 -69,-33 -116,-33 -55,0 -98,16 -128,46 -30,30 -46,72 -46,126zm574 366l-167 0 -19 -52 0 -49 -27 42c-17,22 -45,41 -84,57 -39,17 -91,26 -155,26 -50,0 -96,-9 -140,-27 -44,-18 -82,-45 -115,-79 -32,-35 -58,-78 -76,-129 -19,-50 -28,-108 -28,-173 0,-64 9,-119 27,-163 18,-44 42,-81 73,-109 31,-28 67,-48 109,-61 41,-13 86,-20 133,-20 42,0 77,3 105,10 29,6 53,13 72,22 19,9 34,20 46,31 11,11 20,22 26,32l22 35 5 2 -5 -49c0,-31 -5,-62 -16,-90 -10,-29 -25,-54 -45,-75 -20,-22 -43,-38 -70,-51 -27,-12 -57,-18 -89,-18l-7 0c-44,0 -84,9 -119,28 -35,19 -66,41 -90,66l-137 -135c43,-62 95,-106 158,-133 62,-27 134,-40 215,-40 68,0 128,10 178,30 50,20 91,48 124,84 32,36 56,79 72,130 16,51 24,106 24,167l0 691z" style="fill: rgb(83, 116, 115); fill-rule: nonzero;"/>
   <path id="3" class="fil3" d="M10067 21308c-9,-50 -28,-90 -55,-118 -28,-28 -71,-42 -129,-42 -44,0 -79,9 -106,26 -26,18 -46,41 -60,69 -14,29 -23,63 -27,102 -4,38 -6,79 -6,120 0,47 2,92 6,133 4,42 13,78 28,109 14,31 36,55 64,73 28,17 67,26 116,26 51,0 90,-14 118,-42 28,-27 46,-63 54,-108l217 79c-28,110 -75,188 -142,234 -67,46 -155,69 -266,69l-10 0c-56,0 -110,-8 -161,-24 -51,-16 -96,-46 -135,-88 -38,-42 -69,-99 -91,-172 -23,-72 -34,-165 -34,-279 0,-124 12,-224 35,-298 24,-74 56,-131 96,-170 39,-40 85,-65 136,-77 51,-12 104,-18 159,-18 240,0 380,107 420,320l-227 76z" style="fill: rgb(83, 116, 115); fill-rule: nonzero;"/>
   <path d="M 10790 21646 L 10733 21477 L 10728 21474 L 10739 21666 L 10739 22018 L 10490 22018 L 10490 20570 L 10739 20570 L 10739 21158 L 10728 21302 L 10733 21300 L 10783 21180 L 10921 20929 L 11222 20929 L 11227 20939 L 10965 21305 L 10889 21393 L 10959 21499 L 11225 22003 L 11218 22018 L 10937 22018 Z" id="4" class="fil3" style="fill: rgb(83, 116, 115); fill-rule: nonzero;"/>
   <path id="5" class="fil3" d="M11532 21612c8,25 18,50 32,75 13,25 29,48 48,68 18,20 39,37 63,50 24,13 49,19 76,19 27,0 52,-9 74,-27 23,-18 34,-41 34,-71 0,-26 -11,-50 -32,-69 -22,-20 -49,-41 -81,-64 -30,-21 -65,-42 -105,-63 -39,-21 -76,-46 -112,-75 -35,-29 -65,-65 -90,-106 -25,-42 -37,-93 -37,-154 0,-52 8,-97 24,-134 17,-36 39,-66 68,-89 28,-23 62,-40 101,-50 39,-10 81,-15 126,-15 98,0 177,29 234,87 57,58 91,135 101,230l-192 44c0,-42 -12,-78 -36,-109 -23,-31 -59,-46 -106,-46 -27,0 -50,7 -70,23 -19,15 -30,35 -33,61l0 3c0,17 7,33 21,47 13,14 31,28 53,41 22,14 46,27 73,41 27,14 53,30 79,47 39,23 72,46 101,68 30,22 54,45 75,70 20,25 35,52 46,81 11,29 16,62 16,99 0,54 -9,103 -29,145 -19,43 -45,79 -78,108 -33,28 -71,50 -115,65 -43,15 -89,23 -137,23 -56,0 -107,-11 -153,-33 -47,-22 -86,-50 -119,-84 -33,-34 -60,-73 -80,-115 -21,-42 -34,-83 -39,-124l199 -67z" style="fill: rgb(83, 116, 115); fill-rule: nonzero;"/>
   <path d="M 12832 20735 L 12832 21907 L 13334 21907 L 13334 22018 L 12717 22018 L 12717 20735 Z" class="fil5" id="polygon1170" style="fill: rgb(72, 136, 123); fill-rule: nonzero;"/>
   <path id="path1172" class="fil5" d="M13810 21162c-52,0 -94,8 -126,26 -32,17 -57,43 -74,76 -18,33 -29,73 -36,120 -6,47 -9,100 -9,159 0,57 2,109 7,157 4,47 15,87 32,121 17,34 41,60 73,78 32,19 76,28 133,28 55,0 99,-9 131,-27 33,-18 57,-43 74,-77 17,-33 28,-73 33,-120 5,-47 8,-101 8,-160 0,-58 -3,-110 -8,-157 -5,-47 -16,-87 -33,-121 -17,-33 -41,-58 -74,-76 -32,-18 -76,-27 -131,-27zm0 -115c78,0 142,12 189,35 48,24 85,57 112,101 26,43 43,95 52,156 8,60 13,128 13,204 0,75 -5,143 -14,205 -9,61 -27,113 -53,156 -27,42 -64,75 -111,99 -48,24 -111,35 -188,35 -77,0 -139,-11 -186,-34 -47,-23 -84,-56 -110,-99 -27,-43 -45,-95 -54,-156 -10,-61 -15,-130 -15,-206 0,-78 5,-148 14,-209 9,-62 27,-114 53,-156 26,-42 63,-75 111,-97 47,-23 109,-34 187,-34z" style="fill: rgb(72, 136, 123); fill-rule: nonzero;"/>
   <path id="path1174" class="fil5" d="M14814 21900c50,-25 83,-70 98,-135l0 -138c-17,-51 -41,-90 -73,-119 -32,-29 -82,-43 -150,-43 -85,0 -144,19 -179,57 -34,39 -51,98 -51,179 0,81 17,139 53,174 36,35 95,52 177,52 48,0 90,-9 125,-27zm206 118l-70 0 -26 -55 -4 -17 -9 15c-33,32 -68,54 -106,65 -38,10 -76,16 -116,16 -116,0 -203,-30 -259,-89 -58,-59 -86,-143 -86,-252 0,-112 29,-197 88,-253 59,-56 144,-84 257,-84 45,0 83,6 114,19 31,12 63,30 96,53l7 12 1 -1 -1 -61c0,-87 -18,-146 -53,-177 -35,-32 -87,-47 -158,-47 -47,0 -85,6 -111,18 -27,13 -55,33 -83,61l-88 -84c14,-10 27,-22 39,-34 12,-12 28,-24 47,-35 19,-10 44,-19 74,-27 31,-7 71,-11 120,-11 113,0 195,27 248,81 53,54 79,142 79,263l0 624z" style="fill: rgb(72, 136, 123); fill-rule: nonzero;"/>
   <path id="path1176" class="fil5" d="M15373 22018l-115 0 0 -818 -20 -136 90 0 23 71 3 27 4 0 9 -26c6,-7 14,-16 24,-26 10,-9 23,-19 39,-28 20,-12 43,-21 68,-27 26,-5 51,-8 76,-8 128,0 219,33 271,98 53,65 79,164 79,298l0 575 -115 0 0 -551c0,-51 -2,-95 -7,-133 -5,-39 -16,-70 -34,-96 -16,-25 -40,-44 -71,-57 -31,-13 -72,-19 -123,-19 -47,0 -89,12 -125,38 -36,25 -62,62 -76,110l0 708z" style="fill: rgb(72, 136, 123); fill-rule: nonzero;"/>
   <path id="path1178" class="fil5" d="M16216 21743c12,54 35,97 70,129 34,32 80,48 137,48 21,0 43,-4 64,-11 21,-8 40,-19 56,-33 15,-14 28,-31 38,-49 11,-19 16,-39 16,-60l0 -3c0,-30 -11,-56 -31,-78 -20,-22 -45,-44 -76,-64 -30,-20 -63,-41 -100,-62 -36,-20 -71,-44 -104,-70 -21,-16 -39,-32 -54,-48 -14,-15 -26,-31 -36,-48 -9,-17 -16,-35 -20,-54 -4,-19 -6,-41 -6,-65 0,-35 6,-67 19,-96 13,-28 31,-53 54,-73 22,-20 48,-36 79,-47 30,-11 63,-17 98,-17l8 0c64,2 118,22 162,58 44,37 73,85 89,146l-109 39c-4,-40 -19,-71 -45,-94 -26,-23 -59,-34 -99,-34 -39,0 -71,9 -97,27 -25,18 -39,48 -41,91 0,29 6,53 17,73 11,20 29,37 54,53 55,37 104,69 148,95 44,27 81,53 111,78 31,25 54,52 70,81 15,28 23,64 23,107l0 5c-1,43 -9,81 -24,114 -15,33 -36,61 -61,84 -25,23 -55,41 -90,52 -35,12 -73,18 -113,18 -38,0 -75,-5 -109,-16 -34,-11 -65,-26 -93,-47 -29,-21 -52,-47 -71,-78 -19,-31 -33,-66 -41,-105l107 -46z" style="fill: rgb(72, 136, 123); fill-rule: nonzero;"/>
  </g>
  <g id="g1215">
   
   
   
   
   
   
   
   
   
   
   
   
   
   
  </g>
 </g></g></svg>