<svg width="111" height="24" viewBox="0 0 111 24" fill="none" xmlns="http://www.w3.org/2000/svg">
<path fill-rule="evenodd" clip-rule="evenodd" d="M0.246737 3.80856C-9.31323e-08 4.37873 -6.34997e-08 5.10582 0 6.56L2.37855e-07 12L4.75645e-07 17.44C5.39209e-07 18.8942 0 19.6213 0.246737 20.1914C0.549777 20.8917 1.10827 21.4502 1.80856 21.7533C2.37873 22 3.10582 22 4.56 22H10H15.44C16.8942 22 17.6213 22 18.1914 21.7533C18.8917 21.4502 19.4502 20.8917 19.7533 20.1914C20 19.6213 20 18.8942 20 17.44V12V6.56C20 5.10582 20 4.37873 19.7533 3.80856C19.4502 3.10827 18.8917 2.54978 18.1914 2.24674C17.6213 2 16.8942 2 15.44 2L10 2L4.56 2C3.10582 2 2.34375 2 1.80856 2.24674C1.10827 2.54978 0.549777 3.10827 0.246737 3.80856ZM13.1928 10.6161C12.1947 10.6161 11.3854 9.80681 11.3854 8.80852C11.3854 7.81073 12.1947 7.00146 13.1928 7.00146C14.1908 7.00147 15.0001 7.81073 15.0001 8.80852C15.0001 9.80681 14.1908 10.6161 13.1928 10.6161ZM8.61312 8.80834C8.61312 9.80596 7.80422 10.6149 6.80637 10.6149C5.80902 10.6149 5.00012 9.80596 5.00012 8.80834C5.00012 7.81072 5.80902 7.00179 6.80637 7.00179C7.80422 7.00179 8.61312 7.81072 8.61312 8.80834ZM13.1929 13.391C12.1946 13.391 11.3854 14.2003 11.3854 15.1983C11.3854 16.1964 12.1946 17.0057 13.1929 17.0057C14.1907 17.0057 15 16.1964 15 15.1983C15 14.2003 14.1907 13.391 13.1929 13.391ZM6.80653 13.3927C7.80414 13.3927 8.61305 14.2016 8.61305 15.1995C8.61305 16.1968 7.80414 17.0057 6.80653 17.0057C5.80892 17.0057 5 16.1968 5 15.1995C5 14.2016 5.80892 13.3927 6.80653 13.3927Z" fill="#0F1117"/>
<path d="M29.6468 18H34.1071C36.8116 18 38.0332 16.6534 38.0332 14.8693C38.0332 13.0682 36.7718 12.0511 35.6184 11.9886V11.875C36.6866 11.6023 37.5787 10.875 37.5787 9.42045C37.5787 7.69886 36.3855 6.36364 33.9082 6.36364H29.6468V18ZM31.4025 16.4943V12.767H33.9991C35.4082 12.767 36.2889 13.6761 36.2889 14.7841C36.2889 15.7614 35.6241 16.4943 33.9366 16.4943H31.4025ZM31.4025 11.3977V7.85795H33.8003C35.1923 7.85795 35.8571 8.59091 35.8571 9.55682C35.8571 10.6818 34.9366 11.3977 33.7548 11.3977H31.4025ZM41.5181 6.36364H39.8192V18H41.5181V6.36364ZM47.3197 18.1761C49.78 18.1761 51.3879 16.375 51.3879 13.6761C51.3879 10.9602 49.78 9.15909 47.3197 9.15909C44.8595 9.15909 43.2516 10.9602 43.2516 13.6761C43.2516 16.375 44.8595 18.1761 47.3197 18.1761ZM47.3254 16.75C45.7175 16.75 44.9675 15.3466 44.9675 13.6705C44.9675 12 45.7175 10.5795 47.3254 10.5795C48.922 10.5795 49.672 12 49.672 13.6705C49.672 15.3466 48.922 16.75 47.3254 16.75ZM56.8004 18.1761C58.8629 18.1761 60.1981 16.9375 60.3856 15.2386H58.7322C58.5163 16.1818 57.7833 16.7386 56.8117 16.7386C55.3742 16.7386 54.4481 15.5398 54.4481 13.6364C54.4481 11.767 55.3913 10.5909 56.8117 10.5909C57.8913 10.5909 58.5504 11.2727 58.7322 12.0909H60.3856C60.2038 10.3295 58.7663 9.15909 56.7833 9.15909C54.3231 9.15909 52.7322 11.0114 52.7322 13.6761C52.7322 16.3068 54.2663 18.1761 56.8004 18.1761ZM62.0424 18H63.7412V14.9034L64.5878 14.0568L67.5537 18H69.639L65.8662 13.017L69.4003 9.27273H67.3662L63.889 12.9659H63.7412V6.36364H62.0424V18ZM77.3284 11.4034C76.9761 10.0455 75.9136 9.15909 74.0272 9.15909C72.0557 9.15909 70.6579 10.1989 70.6579 11.7443C70.6579 12.983 71.4079 13.8068 73.0443 14.1705L74.5216 14.4943C75.3625 14.6818 75.7545 15.0568 75.7545 15.6023C75.7545 16.2784 75.0329 16.8068 73.9193 16.8068C72.9022 16.8068 72.2488 16.3693 72.0443 15.5114L70.4022 15.7614C70.6863 17.3068 71.9704 18.1761 73.9307 18.1761C76.0386 18.1761 77.4988 17.0568 77.4988 15.4773C77.4988 14.2443 76.7147 13.483 75.1125 13.1136L73.7261 12.7955C72.7659 12.5682 72.3511 12.2443 72.3568 11.6534C72.3511 10.983 73.0784 10.5057 74.0443 10.5057C75.1011 10.5057 75.5897 11.0909 75.7886 11.6761L77.3284 11.4034ZM83.2806 9.27273H81.4908V7.18182H79.792V9.27273H78.5136V10.6364H79.792V15.7898C79.7863 17.375 80.9965 18.142 82.3374 18.1136C82.8772 18.108 83.2408 18.0057 83.4397 17.9318L83.1329 16.5284C83.0192 16.5511 82.809 16.6023 82.5363 16.6023C81.9851 16.6023 81.4908 16.4205 81.4908 15.4375V10.6364H83.2806V9.27273ZM87.5396 18.1932C88.9828 18.1932 89.7953 17.4602 90.1192 16.8068H90.1874V18H91.8465V12.2045C91.8465 9.66477 89.8465 9.15909 88.4601 9.15909C86.8805 9.15909 85.426 9.79545 84.8578 11.3864L86.4544 11.75C86.7044 11.1307 87.3408 10.5341 88.4828 10.5341C89.5794 10.5341 90.1419 11.108 90.1419 12.0966V12.1364C90.1419 12.7557 89.5055 12.7443 87.9374 12.9261C86.284 13.1193 84.5908 13.5511 84.5908 15.5341C84.5908 17.25 85.8805 18.1932 87.5396 18.1932ZM87.909 16.8295C86.9487 16.8295 86.2555 16.3977 86.2555 15.5568C86.2555 14.6477 87.0624 14.3239 88.0453 14.1932C88.5965 14.1193 89.9033 13.9716 90.1476 13.7273V14.8523C90.1476 15.8864 89.3237 16.8295 87.909 16.8295ZM97.6254 18.1761C99.6879 18.1761 101.023 16.9375 101.211 15.2386H99.5572C99.3413 16.1818 98.6083 16.7386 97.6367 16.7386C96.1992 16.7386 95.2731 15.5398 95.2731 13.6364C95.2731 11.767 96.2163 10.5909 97.6367 10.5909C98.7163 10.5909 99.3754 11.2727 99.5572 12.0909H101.211C101.029 10.3295 99.5913 9.15909 97.6083 9.15909C95.1481 9.15909 93.5572 11.0114 93.5572 13.6761C93.5572 16.3068 95.0913 18.1761 97.6254 18.1761ZM102.867 18H104.566V14.9034L105.413 14.0568L108.379 18H110.464L106.691 13.017L110.225 9.27273H108.191L104.714 12.9659H104.566V6.36364H102.867V18Z" fill="#0F1117"/>
</svg>
